<mxfile host="app.diagrams.net" agent="Mozilla/5.0 (Windows NT 10.0; Win64; x64) AppleWebKit/537.36 (KHTML, like Gecko) Chrome/130.0.0.0 Safari/537.36" version="24.8.3">
  <diagram name="Страница — 1" id="lRHsLn5R7xgBPjcHC3Lh">
    <mxGraphModel dx="607" dy="746" grid="1" gridSize="10" guides="1" tooltips="1" connect="1" arrows="1" fold="1" page="1" pageScale="1" pageWidth="827" pageHeight="1169" math="0" shadow="0">
      <root>
        <mxCell id="0" />
        <mxCell id="1" parent="0" />
        <mxCell id="nbdpSJjiNBNqSFOX0rPw-170" value="" style="rounded=0;whiteSpace=wrap;html=1;" parent="1" vertex="1">
          <mxGeometry x="1035" y="1000" width="750" height="1780" as="geometry" />
        </mxCell>
        <mxCell id="nbdpSJjiNBNqSFOX0rPw-171" value="Администратор" style="shape=umlActor;verticalLabelPosition=bottom;verticalAlign=top;html=1;outlineConnect=0;" parent="1" vertex="1">
          <mxGeometry x="930" y="1180" width="50" height="100" as="geometry" />
        </mxCell>
        <mxCell id="nbdpSJjiNBNqSFOX0rPw-172" value="Оператор" style="shape=umlActor;verticalLabelPosition=bottom;verticalAlign=top;html=1;outlineConnect=0;" parent="1" vertex="1">
          <mxGeometry x="930" y="2190" width="50" height="100" as="geometry" />
        </mxCell>
        <mxCell id="nbdpSJjiNBNqSFOX0rPw-174" value="&lt;div&gt;Руководитель&lt;/div&gt;" style="shape=umlActor;verticalLabelPosition=bottom;verticalAlign=top;html=1;outlineConnect=0;" parent="1" vertex="1">
          <mxGeometry x="930" y="1700" width="50" height="100" as="geometry" />
        </mxCell>
        <mxCell id="nbdpSJjiNBNqSFOX0rPw-176" value="Гость" style="shape=umlActor;verticalLabelPosition=bottom;verticalAlign=top;html=1;outlineConnect=0;" parent="1" vertex="1">
          <mxGeometry x="930" y="2520" width="50" height="100" as="geometry" />
        </mxCell>
        <mxCell id="nbdpSJjiNBNqSFOX0rPw-177" value="&lt;span style=&quot;font-size: 11px;&quot;&gt;«Интерфейс» системы видеоконтроля за «объектом»&lt;/span&gt;" style="text;html=1;align=center;verticalAlign=middle;resizable=0;points=[];autosize=1;strokeColor=none;fillColor=none;fontSize=11;" parent="1" vertex="1">
          <mxGeometry x="1040" y="1000" width="300" height="30" as="geometry" />
        </mxCell>
        <mxCell id="nbdpSJjiNBNqSFOX0rPw-179" value="Управление пользователями" style="ellipse;whiteSpace=wrap;html=1;" parent="1" vertex="1">
          <mxGeometry x="1150" y="1300" width="140" height="60" as="geometry" />
        </mxCell>
        <mxCell id="nbdpSJjiNBNqSFOX0rPw-180" value="" style="endArrow=none;html=1;rounded=0;entryX=0;entryY=0.5;entryDx=0;entryDy=0;" parent="1" target="nbdpSJjiNBNqSFOX0rPw-179" edge="1">
          <mxGeometry width="50" height="50" relative="1" as="geometry">
            <mxPoint x="970" y="1252" as="sourcePoint" />
            <mxPoint x="1070" y="1268" as="targetPoint" />
            <Array as="points" />
          </mxGeometry>
        </mxCell>
        <mxCell id="nbdpSJjiNBNqSFOX0rPw-182" value="Добавление пользователя" style="ellipse;whiteSpace=wrap;html=1;" parent="1" vertex="1">
          <mxGeometry x="1368" y="1240" width="150" height="60" as="geometry" />
        </mxCell>
        <mxCell id="nbdpSJjiNBNqSFOX0rPw-183" value="Изменение пользователя" style="ellipse;whiteSpace=wrap;html=1;" parent="1" vertex="1">
          <mxGeometry x="1368" y="1310" width="150" height="60" as="geometry" />
        </mxCell>
        <mxCell id="nbdpSJjiNBNqSFOX0rPw-184" value="Удаление пользователя" style="ellipse;whiteSpace=wrap;html=1;" parent="1" vertex="1">
          <mxGeometry x="1368" y="1380" width="150" height="60" as="geometry" />
        </mxCell>
        <mxCell id="nbdpSJjiNBNqSFOX0rPw-187" value="Обеспечение&lt;br&gt;безопасности&lt;br&gt;системы" style="ellipse;whiteSpace=wrap;html=1;" parent="1" vertex="1">
          <mxGeometry x="1171" y="1120" width="140" height="60" as="geometry" />
        </mxCell>
        <mxCell id="nbdpSJjiNBNqSFOX0rPw-188" value="" style="endArrow=none;html=1;rounded=0;entryX=-0.012;entryY=0.618;entryDx=0;entryDy=0;entryPerimeter=0;" parent="1" source="nbdpSJjiNBNqSFOX0rPw-171" target="nbdpSJjiNBNqSFOX0rPw-187" edge="1">
          <mxGeometry width="50" height="50" relative="1" as="geometry">
            <mxPoint x="980" y="1262" as="sourcePoint" />
            <mxPoint x="1160" y="1340" as="targetPoint" />
            <Array as="points" />
          </mxGeometry>
        </mxCell>
        <mxCell id="nbdpSJjiNBNqSFOX0rPw-189" value="Управление&amp;nbsp;&lt;br&gt;доступом к данным&lt;br&gt;и функциональности" style="ellipse;whiteSpace=wrap;html=1;" parent="1" vertex="1">
          <mxGeometry x="1420" y="1115" width="190" height="70" as="geometry" />
        </mxCell>
        <mxCell id="nbdpSJjiNBNqSFOX0rPw-191" value="Мониторинг&lt;br&gt;производительности&lt;br&gt;системы" style="ellipse;whiteSpace=wrap;html=1;" parent="1" vertex="1">
          <mxGeometry x="1150" y="1770" width="140" height="60" as="geometry" />
        </mxCell>
        <mxCell id="nbdpSJjiNBNqSFOX0rPw-193" value="Анализ данных&lt;div&gt;о событиях и активности&lt;/div&gt;" style="ellipse;whiteSpace=wrap;html=1;" parent="1" vertex="1">
          <mxGeometry x="1430" y="1780" width="140" height="60" as="geometry" />
        </mxCell>
        <mxCell id="nbdpSJjiNBNqSFOX0rPw-195" value="" style="endArrow=block;endSize=16;endFill=0;html=1;rounded=0;" parent="1" edge="1">
          <mxGeometry width="160" relative="1" as="geometry">
            <mxPoint x="954.29" y="1820" as="sourcePoint" />
            <mxPoint x="954" y="2180" as="targetPoint" />
          </mxGeometry>
        </mxCell>
        <mxCell id="nbdpSJjiNBNqSFOX0rPw-196" value="Управление базой данных" style="ellipse;whiteSpace=wrap;html=1;" parent="1" vertex="1">
          <mxGeometry x="1130" y="1430" width="140" height="60" as="geometry" />
        </mxCell>
        <mxCell id="nbdpSJjiNBNqSFOX0rPw-197" value="Добавление в базу данных" style="ellipse;whiteSpace=wrap;html=1;" parent="1" vertex="1">
          <mxGeometry x="1380" y="1450" width="150" height="60" as="geometry" />
        </mxCell>
        <mxCell id="nbdpSJjiNBNqSFOX0rPw-198" value="Удаление &lt;br&gt;из базы данных" style="ellipse;whiteSpace=wrap;html=1;" parent="1" vertex="1">
          <mxGeometry x="1390" y="1520" width="150" height="60" as="geometry" />
        </mxCell>
        <mxCell id="nbdpSJjiNBNqSFOX0rPw-201" value="" style="endArrow=none;html=1;rounded=0;entryX=0;entryY=0;entryDx=0;entryDy=0;" parent="1" target="nbdpSJjiNBNqSFOX0rPw-196" edge="1">
          <mxGeometry width="50" height="50" relative="1" as="geometry">
            <mxPoint x="970" y="1300" as="sourcePoint" />
            <mxPoint x="1160" y="1449" as="targetPoint" />
            <Array as="points" />
          </mxGeometry>
        </mxCell>
        <mxCell id="nbdpSJjiNBNqSFOX0rPw-202" value="Анализ данных" style="ellipse;whiteSpace=wrap;html=1;" parent="1" vertex="1">
          <mxGeometry x="1153" y="1580" width="140" height="60" as="geometry" />
        </mxCell>
        <mxCell id="nbdpSJjiNBNqSFOX0rPw-204" value="Генерация отчетов" style="ellipse;whiteSpace=wrap;html=1;" parent="1" vertex="1">
          <mxGeometry x="1390" y="1620" width="150" height="60" as="geometry" />
        </mxCell>
        <mxCell id="nbdpSJjiNBNqSFOX0rPw-206" value="" style="endArrow=none;html=1;rounded=0;entryX=0;entryY=0.5;entryDx=0;entryDy=0;" parent="1" source="nbdpSJjiNBNqSFOX0rPw-174" target="nbdpSJjiNBNqSFOX0rPw-202" edge="1">
          <mxGeometry width="50" height="50" relative="1" as="geometry">
            <mxPoint x="1120" y="1830.5" as="sourcePoint" />
            <mxPoint x="1311" y="1979.5" as="targetPoint" />
            <Array as="points" />
          </mxGeometry>
        </mxCell>
        <mxCell id="nbdpSJjiNBNqSFOX0rPw-207" value="Настройка уведомлений&lt;br&gt;о событии" style="ellipse;whiteSpace=wrap;html=1;" parent="1" vertex="1">
          <mxGeometry x="1134" y="1670" width="177" height="70" as="geometry" />
        </mxCell>
        <mxCell id="nbdpSJjiNBNqSFOX0rPw-208" value="" style="endArrow=none;html=1;rounded=0;entryX=0;entryY=0.5;entryDx=0;entryDy=0;" parent="1" target="nbdpSJjiNBNqSFOX0rPw-207" edge="1">
          <mxGeometry width="50" height="50" relative="1" as="geometry">
            <mxPoint x="970" y="1754" as="sourcePoint" />
            <mxPoint x="1150" y="1754" as="targetPoint" />
            <Array as="points" />
          </mxGeometry>
        </mxCell>
        <mxCell id="nbdpSJjiNBNqSFOX0rPw-209" value="Выбор объекта&lt;br&gt;отслеживания" style="ellipse;whiteSpace=wrap;html=1;" parent="1" vertex="1">
          <mxGeometry x="1400" y="1690" width="150" height="60" as="geometry" />
        </mxCell>
        <mxCell id="nbdpSJjiNBNqSFOX0rPw-211" value="" style="endArrow=none;html=1;rounded=0;entryX=0;entryY=0.5;entryDx=0;entryDy=0;" parent="1" target="nbdpSJjiNBNqSFOX0rPw-191" edge="1">
          <mxGeometry width="50" height="50" relative="1" as="geometry">
            <mxPoint x="970" y="1770" as="sourcePoint" />
            <mxPoint x="1134" y="1721" as="targetPoint" />
            <Array as="points" />
          </mxGeometry>
        </mxCell>
        <mxCell id="nbdpSJjiNBNqSFOX0rPw-214" value="" style="endArrow=block;endSize=16;endFill=0;html=1;rounded=0;" parent="1" edge="1">
          <mxGeometry width="160" relative="1" as="geometry">
            <mxPoint x="954.44" y="1310" as="sourcePoint" />
            <mxPoint x="954" y="1690" as="targetPoint" />
          </mxGeometry>
        </mxCell>
        <mxCell id="nbdpSJjiNBNqSFOX0rPw-215" value="Ведение статистики&lt;br&gt;и аналитики" style="ellipse;whiteSpace=wrap;html=1;" parent="1" vertex="1">
          <mxGeometry x="1340" y="1850" width="140" height="60" as="geometry" />
        </mxCell>
        <mxCell id="nbdpSJjiNBNqSFOX0rPw-216" value="extend" style="endArrow=open;endSize=12;dashed=1;html=1;rounded=0;exitX=0;exitY=0;exitDx=0;exitDy=0;entryX=0.791;entryY=0.903;entryDx=0;entryDy=0;entryPerimeter=0;" parent="1" source="nbdpSJjiNBNqSFOX0rPw-215" target="nbdpSJjiNBNqSFOX0rPw-191" edge="1">
          <mxGeometry width="160" relative="1" as="geometry">
            <mxPoint x="1282.5" y="1994.09" as="sourcePoint" />
            <mxPoint x="1199.5" y="1994.09" as="targetPoint" />
          </mxGeometry>
        </mxCell>
        <mxCell id="nbdpSJjiNBNqSFOX0rPw-217" value="Настройка&lt;br&gt;обьектов&lt;br&gt;наблюдения" style="ellipse;whiteSpace=wrap;html=1;" parent="1" vertex="1">
          <mxGeometry x="1101" y="1940" width="140" height="60" as="geometry" />
        </mxCell>
        <mxCell id="nbdpSJjiNBNqSFOX0rPw-218" value="Управление&lt;br&gt;камерами" style="ellipse;whiteSpace=wrap;html=1;" parent="1" vertex="1">
          <mxGeometry x="1110" y="2170" width="140" height="60" as="geometry" />
        </mxCell>
        <mxCell id="nbdpSJjiNBNqSFOX0rPw-219" value="Просмотр &lt;br&gt;видеозаписей" style="ellipse;whiteSpace=wrap;html=1;" parent="1" vertex="1">
          <mxGeometry x="1101" y="2300" width="140" height="60" as="geometry" />
        </mxCell>
        <mxCell id="nbdpSJjiNBNqSFOX0rPw-221" value="" style="endArrow=none;html=1;rounded=0;entryX=0;entryY=0.5;entryDx=0;entryDy=0;" parent="1" source="nbdpSJjiNBNqSFOX0rPw-172" target="nbdpSJjiNBNqSFOX0rPw-217" edge="1">
          <mxGeometry width="50" height="50" relative="1" as="geometry">
            <mxPoint x="970" y="2030" as="sourcePoint" />
            <mxPoint x="1150" y="2060" as="targetPoint" />
            <Array as="points" />
          </mxGeometry>
        </mxCell>
        <mxCell id="nbdpSJjiNBNqSFOX0rPw-222" value="Добавление&lt;br&gt;объекта" style="ellipse;whiteSpace=wrap;html=1;" parent="1" vertex="1">
          <mxGeometry x="1330" y="1920" width="140" height="60" as="geometry" />
        </mxCell>
        <mxCell id="nbdpSJjiNBNqSFOX0rPw-223" value="Редактирование&lt;br&gt;объекта" style="ellipse;whiteSpace=wrap;html=1;" parent="1" vertex="1">
          <mxGeometry x="1340" y="1995" width="140" height="60" as="geometry" />
        </mxCell>
        <mxCell id="nbdpSJjiNBNqSFOX0rPw-226" value="Удаление обьекта" style="ellipse;whiteSpace=wrap;html=1;" parent="1" vertex="1">
          <mxGeometry x="1210" y="2050" width="140" height="60" as="geometry" />
        </mxCell>
        <mxCell id="nbdpSJjiNBNqSFOX0rPw-228" value="" style="endArrow=none;html=1;rounded=0;" parent="1" target="nbdpSJjiNBNqSFOX0rPw-218" edge="1">
          <mxGeometry width="50" height="50" relative="1" as="geometry">
            <mxPoint x="1000" y="2240" as="sourcePoint" />
            <mxPoint x="1111" y="1980" as="targetPoint" />
            <Array as="points" />
          </mxGeometry>
        </mxCell>
        <mxCell id="nbdpSJjiNBNqSFOX0rPw-229" value="Добавление камеры" style="ellipse;whiteSpace=wrap;html=1;" parent="1" vertex="1">
          <mxGeometry x="1300" y="2130" width="140" height="60" as="geometry" />
        </mxCell>
        <mxCell id="nbdpSJjiNBNqSFOX0rPw-230" value="Настройка камеры" style="ellipse;whiteSpace=wrap;html=1;" parent="1" vertex="1">
          <mxGeometry x="1311" y="2200" width="140" height="60" as="geometry" />
        </mxCell>
        <mxCell id="nbdpSJjiNBNqSFOX0rPw-231" value="Удаление камеры" style="ellipse;whiteSpace=wrap;html=1;" parent="1" vertex="1">
          <mxGeometry x="1330" y="2278" width="140" height="60" as="geometry" />
        </mxCell>
        <mxCell id="nbdpSJjiNBNqSFOX0rPw-232" value="include" style="endArrow=open;endSize=12;dashed=1;html=1;rounded=0;exitX=1;exitY=0.5;exitDx=0;exitDy=0;" parent="1" source="nbdpSJjiNBNqSFOX0rPw-245" target="nbdpSJjiNBNqSFOX0rPw-246" edge="1">
          <mxGeometry width="160" relative="1" as="geometry">
            <mxPoint x="1273.7400000000002" y="2610" as="sourcePoint" />
            <mxPoint x="1390" y="2692.56" as="targetPoint" />
          </mxGeometry>
        </mxCell>
        <mxCell id="nbdpSJjiNBNqSFOX0rPw-235" value="Управление архивом&lt;br&gt;видеозаписей" style="ellipse;whiteSpace=wrap;html=1;" parent="1" vertex="1">
          <mxGeometry x="1380" y="2380" width="150" height="70" as="geometry" />
        </mxCell>
        <mxCell id="nbdpSJjiNBNqSFOX0rPw-236" value="" style="endArrow=none;html=1;rounded=0;entryX=0;entryY=0;entryDx=0;entryDy=0;" parent="1" target="nbdpSJjiNBNqSFOX0rPw-219" edge="1">
          <mxGeometry width="50" height="50" relative="1" as="geometry">
            <mxPoint x="990" y="2260" as="sourcePoint" />
            <mxPoint x="1128" y="2224" as="targetPoint" />
            <Array as="points" />
          </mxGeometry>
        </mxCell>
        <mxCell id="nbdpSJjiNBNqSFOX0rPw-237" value="extend" style="endArrow=open;endSize=12;dashed=1;html=1;rounded=0;exitX=0;exitY=0.5;exitDx=0;exitDy=0;" parent="1" source="nbdpSJjiNBNqSFOX0rPw-235" target="nbdpSJjiNBNqSFOX0rPw-219" edge="1">
          <mxGeometry width="160" relative="1" as="geometry">
            <mxPoint x="1320" y="2465" as="sourcePoint" />
            <mxPoint x="1220" y="2430" as="targetPoint" />
          </mxGeometry>
        </mxCell>
        <mxCell id="nbdpSJjiNBNqSFOX0rPw-238" value="Поиск по параметрам" style="ellipse;whiteSpace=wrap;html=1;" parent="1" vertex="1">
          <mxGeometry x="1550" y="2310" width="140" height="60" as="geometry" />
        </mxCell>
        <mxCell id="nbdpSJjiNBNqSFOX0rPw-240" value="Сохранение&lt;br&gt;архива" style="ellipse;whiteSpace=wrap;html=1;" parent="1" vertex="1">
          <mxGeometry x="1610" y="2410" width="140" height="60" as="geometry" />
        </mxCell>
        <mxCell id="nbdpSJjiNBNqSFOX0rPw-242" value="Поиск видозаписей" style="ellipse;whiteSpace=wrap;html=1;" parent="1" vertex="1">
          <mxGeometry x="1101" y="2400" width="140" height="60" as="geometry" />
        </mxCell>
        <mxCell id="nbdpSJjiNBNqSFOX0rPw-243" value="" style="endArrow=none;html=1;rounded=0;entryX=0;entryY=0;entryDx=0;entryDy=0;" parent="1" target="nbdpSJjiNBNqSFOX0rPw-242" edge="1">
          <mxGeometry width="50" height="50" relative="1" as="geometry">
            <mxPoint x="990" y="2280" as="sourcePoint" />
            <mxPoint x="1142" y="2429" as="targetPoint" />
            <Array as="points" />
          </mxGeometry>
        </mxCell>
        <mxCell id="nbdpSJjiNBNqSFOX0rPw-244" value="" style="endArrow=block;endSize=16;endFill=0;html=1;rounded=0;" parent="1" edge="1">
          <mxGeometry width="160" relative="1" as="geometry">
            <mxPoint x="954.57" y="2310" as="sourcePoint" />
            <mxPoint x="954.57" y="2510" as="targetPoint" />
          </mxGeometry>
        </mxCell>
        <mxCell id="nbdpSJjiNBNqSFOX0rPw-245" value="Авторизация" style="ellipse;whiteSpace=wrap;html=1;" parent="1" vertex="1">
          <mxGeometry x="1101" y="2540" width="140" height="60" as="geometry" />
        </mxCell>
        <mxCell id="nbdpSJjiNBNqSFOX0rPw-246" value="Подтверждение&lt;br&gt;двух/трёх факторной&lt;br&gt;аутентификации" style="ellipse;whiteSpace=wrap;html=1;" parent="1" vertex="1">
          <mxGeometry x="1368" y="2530" width="210" height="80" as="geometry" />
        </mxCell>
        <mxCell id="nbdpSJjiNBNqSFOX0rPw-247" value="" style="endArrow=none;html=1;rounded=0;" parent="1" source="nbdpSJjiNBNqSFOX0rPw-176" target="nbdpSJjiNBNqSFOX0rPw-245" edge="1">
          <mxGeometry width="50" height="50" relative="1" as="geometry">
            <mxPoint x="1124.5" y="2510" as="sourcePoint" />
            <mxPoint x="1255.5" y="2639" as="targetPoint" />
            <Array as="points" />
          </mxGeometry>
        </mxCell>
        <mxCell id="_kNCW8G9MSma-thPSeyQ-1" value="extend" style="endArrow=open;endSize=12;dashed=1;html=1;rounded=0;" edge="1" parent="1" source="nbdpSJjiNBNqSFOX0rPw-189" target="nbdpSJjiNBNqSFOX0rPw-187">
          <mxGeometry width="160" relative="1" as="geometry">
            <mxPoint x="1380" y="1155" as="sourcePoint" />
            <mxPoint x="1280" y="1120" as="targetPoint" />
          </mxGeometry>
        </mxCell>
        <mxCell id="_kNCW8G9MSma-thPSeyQ-2" value="extend" style="endArrow=open;endSize=12;dashed=1;html=1;rounded=0;" edge="1" parent="1" source="nbdpSJjiNBNqSFOX0rPw-182" target="nbdpSJjiNBNqSFOX0rPw-179">
          <mxGeometry width="160" relative="1" as="geometry">
            <mxPoint x="1380" y="1260" as="sourcePoint" />
            <mxPoint x="1271" y="1260" as="targetPoint" />
          </mxGeometry>
        </mxCell>
        <mxCell id="_kNCW8G9MSma-thPSeyQ-3" value="extend" style="endArrow=open;endSize=12;dashed=1;html=1;rounded=0;" edge="1" parent="1" source="nbdpSJjiNBNqSFOX0rPw-183">
          <mxGeometry width="160" relative="1" as="geometry">
            <mxPoint x="1391" y="1297" as="sourcePoint" />
            <mxPoint x="1289" y="1324" as="targetPoint" />
          </mxGeometry>
        </mxCell>
        <mxCell id="_kNCW8G9MSma-thPSeyQ-4" value="extend" style="endArrow=open;endSize=12;dashed=1;html=1;rounded=0;entryX=0.943;entryY=0.783;entryDx=0;entryDy=0;entryPerimeter=0;" edge="1" parent="1" source="nbdpSJjiNBNqSFOX0rPw-184" target="nbdpSJjiNBNqSFOX0rPw-179">
          <mxGeometry width="160" relative="1" as="geometry">
            <mxPoint x="1380" y="1342" as="sourcePoint" />
            <mxPoint x="1299" y="1334" as="targetPoint" />
          </mxGeometry>
        </mxCell>
        <mxCell id="_kNCW8G9MSma-thPSeyQ-5" value="extend" style="endArrow=open;endSize=12;dashed=1;html=1;rounded=0;" edge="1" parent="1" source="nbdpSJjiNBNqSFOX0rPw-197" target="nbdpSJjiNBNqSFOX0rPw-196">
          <mxGeometry width="160" relative="1" as="geometry">
            <mxPoint x="1358" y="1532" as="sourcePoint" />
            <mxPoint x="1250" y="1490" as="targetPoint" />
          </mxGeometry>
        </mxCell>
        <mxCell id="_kNCW8G9MSma-thPSeyQ-6" value="extend" style="endArrow=open;endSize=12;dashed=1;html=1;rounded=0;" edge="1" parent="1" source="nbdpSJjiNBNqSFOX0rPw-198" target="nbdpSJjiNBNqSFOX0rPw-196">
          <mxGeometry width="160" relative="1" as="geometry">
            <mxPoint x="1390" y="1510" as="sourcePoint" />
            <mxPoint x="1278" y="1501" as="targetPoint" />
          </mxGeometry>
        </mxCell>
        <mxCell id="_kNCW8G9MSma-thPSeyQ-7" value="extend" style="endArrow=open;endSize=12;dashed=1;html=1;rounded=0;entryX=1;entryY=0.5;entryDx=0;entryDy=0;" edge="1" parent="1" source="nbdpSJjiNBNqSFOX0rPw-204" target="nbdpSJjiNBNqSFOX0rPw-202">
          <mxGeometry width="160" relative="1" as="geometry">
            <mxPoint x="1418" y="1620" as="sourcePoint" />
            <mxPoint x="1265" y="1568" as="targetPoint" />
          </mxGeometry>
        </mxCell>
        <mxCell id="_kNCW8G9MSma-thPSeyQ-9" value="extend" style="endArrow=open;endSize=12;dashed=1;html=1;rounded=0;" edge="1" parent="1" source="nbdpSJjiNBNqSFOX0rPw-209" target="nbdpSJjiNBNqSFOX0rPw-207">
          <mxGeometry width="160" relative="1" as="geometry">
            <mxPoint x="1398" y="1690" as="sourcePoint" />
            <mxPoint x="1290" y="1648" as="targetPoint" />
          </mxGeometry>
        </mxCell>
        <mxCell id="_kNCW8G9MSma-thPSeyQ-10" value="extend" style="endArrow=open;endSize=12;dashed=1;html=1;rounded=0;" edge="1" parent="1" source="nbdpSJjiNBNqSFOX0rPw-222" target="nbdpSJjiNBNqSFOX0rPw-217">
          <mxGeometry width="160" relative="1" as="geometry">
            <mxPoint x="1301" y="1926" as="sourcePoint" />
            <mxPoint x="1210" y="1920" as="targetPoint" />
          </mxGeometry>
        </mxCell>
        <mxCell id="_kNCW8G9MSma-thPSeyQ-11" value="extend" style="endArrow=open;endSize=12;dashed=1;html=1;rounded=0;" edge="1" parent="1" source="nbdpSJjiNBNqSFOX0rPw-223" target="nbdpSJjiNBNqSFOX0rPw-217">
          <mxGeometry width="160" relative="1" as="geometry">
            <mxPoint x="1341" y="1966" as="sourcePoint" />
            <mxPoint x="1250" y="1974" as="targetPoint" />
          </mxGeometry>
        </mxCell>
        <mxCell id="_kNCW8G9MSma-thPSeyQ-12" value="extend" style="endArrow=open;endSize=12;dashed=1;html=1;rounded=0;" edge="1" parent="1" source="nbdpSJjiNBNqSFOX0rPw-226" target="nbdpSJjiNBNqSFOX0rPw-217">
          <mxGeometry width="160" relative="1" as="geometry">
            <mxPoint x="1364" y="2017" as="sourcePoint" />
            <mxPoint x="1260" y="1984" as="targetPoint" />
          </mxGeometry>
        </mxCell>
        <mxCell id="_kNCW8G9MSma-thPSeyQ-13" value="extend" style="endArrow=open;endSize=12;dashed=1;html=1;rounded=0;" edge="1" parent="1" source="nbdpSJjiNBNqSFOX0rPw-229" target="nbdpSJjiNBNqSFOX0rPw-218">
          <mxGeometry width="160" relative="1" as="geometry">
            <mxPoint x="1257.5" y="2137" as="sourcePoint" />
            <mxPoint x="1142.5" y="2110" as="targetPoint" />
          </mxGeometry>
        </mxCell>
        <mxCell id="_kNCW8G9MSma-thPSeyQ-14" value="extend" style="endArrow=open;endSize=12;dashed=1;html=1;rounded=0;" edge="1" parent="1" source="nbdpSJjiNBNqSFOX0rPw-230" target="nbdpSJjiNBNqSFOX0rPw-218">
          <mxGeometry width="160" relative="1" as="geometry">
            <mxPoint x="1317" y="2183" as="sourcePoint" />
            <mxPoint x="1253" y="2197" as="targetPoint" />
          </mxGeometry>
        </mxCell>
        <mxCell id="_kNCW8G9MSma-thPSeyQ-15" value="extend" style="endArrow=open;endSize=12;dashed=1;html=1;rounded=0;" edge="1" parent="1" source="nbdpSJjiNBNqSFOX0rPw-231" target="nbdpSJjiNBNqSFOX0rPw-218">
          <mxGeometry width="160" relative="1" as="geometry">
            <mxPoint x="1293" y="2278" as="sourcePoint" />
            <mxPoint x="1225" y="2260" as="targetPoint" />
          </mxGeometry>
        </mxCell>
        <mxCell id="_kNCW8G9MSma-thPSeyQ-16" value="extend" style="endArrow=open;endSize=12;dashed=1;html=1;rounded=0;" edge="1" parent="1" source="nbdpSJjiNBNqSFOX0rPw-238" target="nbdpSJjiNBNqSFOX0rPw-235">
          <mxGeometry width="160" relative="1" as="geometry">
            <mxPoint x="1458" y="2380" as="sourcePoint" />
            <mxPoint x="1300" y="2316" as="targetPoint" />
          </mxGeometry>
        </mxCell>
        <mxCell id="_kNCW8G9MSma-thPSeyQ-17" value="extend" style="endArrow=open;endSize=12;dashed=1;html=1;rounded=0;" edge="1" parent="1" source="nbdpSJjiNBNqSFOX0rPw-240" target="nbdpSJjiNBNqSFOX0rPw-235">
          <mxGeometry width="160" relative="1" as="geometry">
            <mxPoint x="1582" y="2372" as="sourcePoint" />
            <mxPoint x="1519" y="2401" as="targetPoint" />
          </mxGeometry>
        </mxCell>
      </root>
    </mxGraphModel>
  </diagram>
</mxfile>
